#N canvas 0 0 1920 1109 10;
#X obj 599 109 dumpOSC 8000;
#X msg 988 197 1 \, 0 100;
#X obj 991 142 t b b;
#X msg 1095 196 0.8 \, 0 50;
#X obj 1210 197 noise~;
#X obj 1210 232 lop~ 3000;
#X obj 1210 277 bp~ 5000 3;
#X obj 1095 233 line~;
#X obj 1095 271 pow~ 4;
#X obj 1095 306 *~;
#X obj 948 239 line~;
#X obj 945 282 *~;
#X obj 1003 253 osc~ 250;
#X obj 945 317 +~;
#X obj 944 359 /~ 1.5;
#X obj 946 393 lop~ 4000;
#X obj 942 437 throw~ \$0-output;
#X obj 989 108 r button2;
#X obj 605 216 s button2;
#X obj 350 907 catch~ \$0-output;
#X obj 350 950 /~ 5;
#X obj 349 988 s~ salida3;
#X obj 336 1098 dac~ 1 2;
#X obj 256 1038 r~ salida;
#X obj 336 1038 r~ salida2;
#X obj 419 1039 r~ salida3;
#X obj 473 1065 r~ salida4;
#X obj 1460 81 r button2;
#X obj 1460 116 print;
#X obj 610 161 route /button;
#X obj 383 165 route /mouse;
#X obj 382 208 s mouse;
#X obj 337 149 print;
#X obj 372 69 r mouse;
#X obj 409 371 makenote;
#X obj 409 419 noteout;
#X obj 288 275 random 12;
#X floatatom 288 351 5 0 0 0 - - -;
#X obj 288 314 + 60;
#X obj 288 236 metro 200;
#X obj 538 420 pgmout;
#X floatatom 539 387 5 0 0 0 - - -;
#X msg 440 324 127;
#X msg 482 326 200;
#X obj 288 194 r button2;
#X obj 539 331 r mouse;
#X obj 539 363 * 130;
#X connect 0 0 29 0;
#X connect 0 0 30 0;
#X connect 1 0 10 0;
#X connect 2 0 1 0;
#X connect 2 1 3 0;
#X connect 3 0 7 0;
#X connect 4 0 5 0;
#X connect 5 0 6 0;
#X connect 6 0 9 1;
#X connect 7 0 8 0;
#X connect 8 0 9 0;
#X connect 9 0 13 1;
#X connect 10 0 11 0;
#X connect 10 0 11 1;
#X connect 11 0 13 0;
#X connect 12 0 11 1;
#X connect 13 0 14 0;
#X connect 14 0 15 0;
#X connect 15 0 16 0;
#X connect 17 0 2 0;
#X connect 19 0 20 0;
#X connect 20 0 21 0;
#X connect 23 0 22 0;
#X connect 23 0 22 1;
#X connect 24 0 22 1;
#X connect 24 0 22 0;
#X connect 25 0 22 0;
#X connect 25 0 22 1;
#X connect 26 0 22 0;
#X connect 26 0 22 1;
#X connect 27 0 28 0;
#X connect 29 0 18 0;
#X connect 30 0 31 0;
#X connect 33 0 32 0;
#X connect 34 0 35 0;
#X connect 34 1 35 1;
#X connect 36 0 38 0;
#X connect 37 0 34 0;
#X connect 38 0 37 0;
#X connect 39 0 36 0;
#X connect 41 0 40 0;
#X connect 42 0 34 1;
#X connect 43 0 34 2;
#X connect 44 0 39 0;
#X connect 45 0 46 0;
#X connect 46 0 41 0;
